<svg xmlns="http://www.w3.org/2000/svg" direction="ltr" width="2048" height="2048" viewBox="2849.217967722656 -395.4361319549844 2048 2048" stroke-linecap="round" stroke-linejoin="round" data-color-mode="light" class="tl-container tl-theme__force-sRGB tl-theme__light" style="background-color: transparent;"><defs/><g transform="matrix(1, 0, 0, 1, 2849.218, -395.4361)" opacity="1"><g data-lovart-layer-name="SVG 2"><g transform="scale(1.4143646408839778, 1.4143646408839778)"><g>
<path xmlns="http://www.w3.org/2000/svg" fill="#cea65f" d="   M 840.47 828.63   A 0.20 0.20 0.0 0 1 840.10 828.55   C 839.85 823.56 841.30 818.49 841.38 813.49   Q 841.76 790.87 841.33 781.76   Q 841.14 777.72 839.77 768.84   C 837.78 755.85 832.44 743.95 823.30 734.68   Q 817.85 729.16 809.25 723.78   C 805.36 721.35 800.93 719.77 796.45 717.74   Q 794.32 716.77 791.15 715.72   Q 775.92 710.67 769.84 708.64   Q 759.91 705.32 753.97 697.55   C 750.15 692.57 748.66 684.81 753.25 679.82   Q 757.22 675.49 760.94 670.72   Q 761.61 669.87 762.95 669.80   A 1.90 1.82 -7.5 0 1 764.87 671.21   Q 765.55 674.07 766.62 676.88   C 768.26 681.15 772.64 685.18 777.00 686.07   C 779.82 686.64 783.35 683.45 783.52 680.51   Q 783.71 677.32 783.00 666.52   C 782.33 656.31 783.76 647.10 788.23 637.53   C 792.69 628.00 798.73 616.25 794.43 605.63   C 792.74 601.45 788.88 600.69 784.09 600.20   A 0.81 0.79 -6.8 0 1 783.41 599.68   Q 782.64 597.63 782.84 596.61   C 786.46 578.10 779.07 559.74 765.57 547.65   Q 760.44 543.05 755.35 540.32   A 0.51 0.50 -69.5 0 1 755.10 539.76   Q 759.38 522.20 749.47 509.71   C 739.78 497.49 724.97 494.32 710.60 500.60   C 702.69 504.06 697.15 510.70 693.95 518.26   Q 689.69 528.34 693.10 539.10   A 1.38 1.38 0.0 0 1 692.47 540.71   C 688.71 542.87 686.60 543.91 683.91 546.21   C 669.36 558.70 661.55 578.29 665.44 597.27   A 2.21 2.20 75.9 0 1 663.92 599.82   Q 663.48 599.96 660.79 600.34   C 653.97 601.30 651.46 609.58 652.23 615.51   Q 653.13 622.49 655.18 627.33   C 658.17 634.42 662.33 641.61 663.81 648.03   C 665.90 657.19 665.81 665.59 664.54 675.26   Q 664.48 675.76 664.66 679.17   C 664.84 682.63 666.54 685.32 669.94 685.79   A 3.10 3.02 42.7 0 0 671.01 685.76   C 679.86 683.95 680.76 677.79 683.43 670.52   A 1.07 1.03 -86.9 0 1 684.14 669.86   Q 685.93 669.38 687.02 670.91   Q 690.12 675.24 693.38 678.38   C 696.57 681.44 697.66 684.16 697.51 688.06   C 697.11 698.73 686.67 705.92 677.30 709.05   C 660.23 714.75 650.40 717.41 637.89 724.63   C 621.17 734.27 611.12 750.03 608.50 768.99   Q 604.70 796.41 608.36 823.74   Q 608.60 825.54 608.04 827.88   A 0.22 0.22 0.0 0 1 607.64 827.95   Q 595.11 808.20 592.05 802.73   Q 572.49 767.73 561.68 729.88   Q 551.42 693.99 549.44 651.91   Q 547.16 603.55 557.04 552.28   Q 572.94 469.66 615.55 399.78   Q 656.90 331.96 717.54 279.33   C 720.44 276.81 723.76 272.88 727.61 276.35   Q 748.91 295.61 767.66 315.03   Q 805.57 354.30 833.69 401.30   Q 838.11 408.68 845.24 421.95   Q 866.44 461.40 878.25 500.71   C 881.14 510.34 883.10 516.01 884.69 522.53   Q 897.99 577.12 899.29 624.26   Q 900.60 671.30 890.20 716.74   Q 887.77 727.36 882.53 743.90   C 874.60 768.92 862.84 793.36 849.24 815.22   C 846.26 820.01 842.68 824.22 840.47 828.63   Z"/>
<path xmlns="http://www.w3.org/2000/svg" fill="#cea65f" d="   M 733.31 970.88   Q 773.66 947.19 806.15 917.89   C 843.00 884.67 874.83 844.27 896.35 799.86   Q 924.73 741.26 931.73 676.01   Q 932.71 666.88 933.53 652.86   Q 934.26 640.48 934.17 629.64   Q 933.77 582.22 923.42 536.03   Q 922.56 532.21 925.24 529.76   Q 943.35 513.20 969.08 495.85   Q 1003.42 472.70 1047.08 456.10   Q 1064.91 449.33 1079.66 445.20   Q 1109.20 436.94 1130.05 432.40   Q 1132.89 431.78 1135.36 431.36   A 1.61 1.60 79.3 0 1 1137.21 432.63   Q 1138.98 441.24 1140.13 449.76   Q 1145.17 487.00 1144.92 521.49   Q 1144.77 541.32 1142.46 567.75   C 1140.08 595.04 1134.73 621.48 1127.89 647.77   Q 1112.79 705.82 1083.48 758.49   Q 1076.03 771.88 1063.99 789.14   Q 1052.81 805.16 1042.14 818.10   Q 980.97 892.25 895.85 936.86   Q 872.10 949.31 848.12 957.59   Q 839.60 960.53 824.25 964.46   Q 807.76 968.68 791.23 970.72   C 783.75 971.64 778.01 971.70 768.25 972.37   C 760.83 972.88 752.97 972.65 745.25 972.64   Q 740.05 972.64 733.37 971.23   A 0.19 0.19 0.0 0 1 733.31 970.88   Z"/>
<path xmlns="http://www.w3.org/2000/svg" fill="#cea65f" d="   M 714.38 971.23   Q 710.94 972.13 707.00 972.31   Q 648.44 974.99 594.26 955.08   C 588.95 953.13 584.07 950.86 576.21 947.51   Q 566.06 943.19 552.97 936.03   C 512.12 913.68 473.55 886.32 439.95 853.56   Q 365.10 780.57 331.12 682.41   Q 303.52 602.67 303.51 518.75   Q 303.50 483.57 308.89 447.00   C 309.68 441.60 309.81 436.84 311.67 431.98   A 0.66 0.65 -73.7 0 1 312.41 431.57   Q 351.85 439.24 390.17 452.23   Q 398.46 455.04 407.52 458.76   C 424.45 465.71 439.42 472.08 454.77 480.91   Q 490.85 501.67 521.90 528.60   Q 523.98 530.41 525.18 532.87   A 2.06 2.04 38.5 0 1 525.34 534.20   C 516.26 575.51 512.23 618.81 515.43 661.53   Q 516.73 678.90 519.66 698.20   Q 522.79 718.83 530.98 745.81   Q 544.57 790.62 567.83 827.97   Q 573.54 837.15 574.51 838.75   Q 576.88 842.66 581.61 849.25   Q 589.84 860.70 591.63 863.11   Q 597.81 871.40 612.76 888.60   Q 623.86 901.35 637.01 913.36   Q 661.76 935.96 687.32 953.54   C 693.95 958.10 699.97 961.43 706.22 966.03   C 708.82 967.94 711.79 969.50 714.43 970.74   A 0.26 0.26 0.0 0 1 714.38 971.23   Z"/>
<path xmlns="http://www.w3.org/2000/svg" fill="#cea65f" d="   M 857.50 983.62   Q 857.43 983.06 857.97 982.94   Q 871.18 979.92 885.19 974.17   C 921.10 959.42 954.87 941.08 985.68 917.92   Q 1036.41 879.79 1076.63 828.88   C 1103.14 795.32 1124.75 756.29 1140.49 716.77   Q 1143.91 708.20 1148.99 694.27   C 1150.31 690.66 1153.49 690.19 1156.91 689.35   Q 1190.28 681.20 1221.25 680.01   Q 1250.32 678.90 1283.89 682.19   Q 1291.84 682.97 1302.97 684.95   C 1313.35 686.80 1326.04 688.34 1336.48 691.65   A 1.47 1.46 16.1 0 1 1337.46 693.41   C 1334.21 705.91 1328.54 721.11 1322.74 733.89   Q 1301.30 781.10 1270.62 823.62   Q 1265.42 830.82 1252.73 846.98   C 1237.35 866.56 1219.27 886.95 1200.11 904.07   Q 1179.57 922.41 1169.88 929.88   Q 1149.63 945.49 1129.45 958.17   Q 1128.17 958.97 1115.21 966.28   C 1099.24 975.29 1082.45 982.55 1065.20 987.61   Q 1048.51 992.49 1027.93 995.20   Q 985.37 1000.80 943.00 997.63   C 915.73 995.58 892.61 992.83 867.48 986.74   Q 862.29 985.48 857.95 984.07   Q 857.53 983.93 857.50 983.62   Z"/>
<path xmlns="http://www.w3.org/2000/svg" fill="#cea65f" d="   M 590.74 982.98   A 0.33 0.33 0.0 0 1 590.74 983.58   Q 583.93 986.83 577.32 988.01   Q 571.27 989.09 567.44 989.98   Q 558.76 992.02 549.05 993.34   Q 534.75 995.28 520.50 996.64   C 483.40 1000.18 446.68 999.19 410.31 993.47   C 381.84 988.99 354.04 978.34 328.81 963.68   Q 299.63 946.72 275.89 927.61   Q 233.37 893.38 200.79 853.45   C 165.84 810.63 135.67 762.67 116.41 710.57   Q 113.36 702.33 111.50 693.56   A 1.50 1.50 0.0 0 1 112.52 691.81   Q 118.60 689.93 122.86 689.14   C 137.73 686.42 153.54 683.47 168.49 681.98   Q 201.81 678.67 234.40 680.63   Q 248.99 681.51 261.97 683.59   Q 280.62 686.59 294.27 689.92   Q 298.46 690.94 299.84 694.94   Q 314.87 738.73 338.04 778.38   C 375.32 842.17 428.47 896.20 491.00 935.99   C 502.14 943.07 515.35 950.89 527.80 957.31   Q 548.60 968.05 571.26 976.71   Q 580.33 980.17 582.27 980.74   C 585.36 981.64 588.58 981.95 590.74 982.98   Z"/>
<path xmlns="http://www.w3.org/2000/svg" fill="#cea65f" d="   M 707.43 1012.39   Q 707.46 1015.25 706.23 1017.52   Q 689.01 1049.20 662.79 1076.62   Q 612.04 1129.68 540.96 1150.05   Q 513.21 1158.01 484.22 1160.40   Q 470.18 1161.56 454.76 1161.90   Q 446.59 1162.08 418.50 1160.25   Q 415.15 1160.04 387.18 1156.31   C 377.41 1155.00 370.08 1153.17 359.96 1151.47   Q 357.20 1151.01 349.13 1149.26   Q 319.31 1142.79 289.80 1132.91   Q 261.77 1123.53 228.69 1109.66   Q 225.39 1108.27 221.09 1106.54   A 2.01 2.01 0.0 0 1 220.02 1103.84   Q 221.84 1099.85 225.06 1096.55   Q 247.95 1073.07 269.92 1055.94   C 290.62 1039.81 311.93 1027.13 335.06 1016.07   Q 344.54 1011.53 352.37 1008.86   C 354.77 1008.04 357.74 1008.13 360.53 1008.97   C 368.60 1011.41 373.65 1013.18 379.80 1014.53   C 389.19 1016.60 399.02 1019.53 409.23 1021.05   Q 436.75 1025.16 455.76 1026.38   Q 478.24 1027.81 494.76 1026.38   C 519.83 1024.20 543.97 1021.49 567.95 1015.67   Q 585.12 1011.51 601.18 1006.94   C 609.28 1004.64 622.18 1004.21 629.67 1003.65   Q 636.34 1003.15 641.84 1003.45   Q 660.76 1004.50 673.56 1005.86   C 682.33 1006.79 693.54 1009.29 703.53 1010.42   Q 703.71 1010.44 706.93 1011.68   A 0.78 0.78 0.0 0 1 707.43 1012.39   Z"/>
<path xmlns="http://www.w3.org/2000/svg" fill="#cea65f" d="   M 740.78 1012.33   A 0.65 0.65 0.0 0 1 741.19 1011.62   C 745.22 1010.00 750.10 1009.95 754.84 1009.05   Q 769.47 1006.29 775.75 1005.76   Q 804.58 1003.37 811.00 1003.49   C 822.05 1003.70 831.94 1004.01 841.96 1005.76   Q 844.01 1006.11 851.43 1008.11   Q 884.91 1017.14 903.49 1020.49   Q 915.01 1022.57 945.49 1025.71   Q 956.52 1026.84 969.12 1027.01   Q 984.02 1027.20 992.75 1026.53   Q 994.22 1026.42 1013.87 1024.49   Q 1025.76 1023.33 1034.92 1021.77   C 1054.13 1018.52 1071.19 1013.94 1090.01 1008.49   C 1094.04 1007.32 1099.13 1009.79 1104.42 1011.95   Q 1114.51 1016.06 1127.08 1022.74   Q 1151.70 1035.84 1174.11 1052.50   C 1183.09 1059.18 1189.43 1064.71 1198.35 1072.23   C 1208.29 1080.60 1217.87 1090.96 1227.23 1100.46   C 1228.28 1101.53 1229.17 1102.91 1229.23 1104.20   A 2.53 2.51 78.2 0 1 1227.62 1106.68   Q 1221.93 1108.86 1220.65 1109.41   Q 1179.12 1127.45 1142.42 1138.38   Q 1115.45 1146.41 1093.74 1150.67   C 1083.02 1152.78 1067.78 1155.81 1053.42 1157.66   Q 1023.56 1161.50 994.75 1161.82   Q 969.46 1162.09 936.89 1156.94   Q 928.67 1155.64 922.92 1153.94   C 917.34 1152.29 911.07 1151.23 904.43 1149.16   Q 866.50 1137.39 834.94 1117.54   Q 786.76 1087.23 754.59 1038.45   C 749.65 1030.95 745.32 1022.27 741.40 1015.94   A 1.28 1.20 -67.1 0 1 741.23 1015.48   L 740.78 1012.33   Z"/>
</g></g></g></g></svg>